<svg width="20" height="20" viewBox="0 0 20 20" xmlns="http://www.w3.org/2000/svg"><title>icon_rd</title><g fill="none" fill-rule="evenodd"><path d="M17.25 10.85a2.4 2.4 0 1 0 0-4.8 2.4 2.4 0 0 0 0 4.8zm-14.5 0a2.4 2.4 0 1 0 0-4.8 2.4 2.4 0 0 0 0 4.8z" fill="#FFF"/><path stroke="#FFF" stroke-width="1.5" d="M9.844 8.805l.493-5.544 4.123-1.07"/><circle stroke="#FFF" stroke-width=".8" fill="#FFF" cx="14.7" cy="2.1" r="1.5"/><path d="M10 18c4.694 0 8.5-2.686 8.5-6S14.694 6 10 6s-8.5 2.686-8.5 6 3.806 6 8.5 6zm-3.4-6.1a1.7 1.7 0 1 0 0-3.4 1.7 1.7 0 0 0 0 3.4zm6.8 0a1.7 1.7 0 1 0 0-3.4 1.7 1.7 0 0 0 0 3.4zm-3.402 4.058c1.153 0 2.316-.283 3.452-.903.399-.222.52-.702.234-1.048-.252-.315-.737-.4-1.1-.197-2.11 1.144-4.05.776-5.108.04-.343-.233-.837-.189-1.118.102-.309.32-.249.81.125 1.063.063.04.155.094.281.16a7.103 7.103 0 0 0 3.234.782z" fill="#FFF"/></g></svg>