<svg width="24" height="24" viewBox="0 0 24 24" xmlns="http://www.w3.org/2000/svg"><title>icon-community</title><path d="M7.737 9a1.5 1.5 0 1 0 0-3 1.5 1.5 0 0 0 0 3zm0 2a3.5 3.5 0 1 1 0-7 3.5 3.5 0 0 1 0 7zm-.194 4.001c.3-.726.685-1.385 1.157-1.969A13.791 13.791 0 0 0 7.737 13c-7 0-6.7 5.031-6.7 5.031C.814 19.113 1.634 20 2.742 20h3.994v-.001c0-.764.02-1.405.076-1.999H2.867c.028-.142.06-.28.1-.422.452-1.642 1.64-2.54 4.576-2.577zM16.237 10a3.5 3.5 0 1 1 0-7 3.5 3.5 0 0 1 0 7zm7.245 8.022c.14 1.093-.638 1.978-1.737 1.978H10.73c-1.1 0-1.925-.887-1.736-1.978 0 0-.256-6.022 7.244-6.022s7.245 6.022 7.245 6.022zm-2.076-1.015C20.809 15.058 19.397 14 16.237 14c-3.16 0-4.572 1.058-5.168 3.007a6.63 6.63 0 0 0-.224.993H21.63a6.63 6.63 0 0 0-.224-.993zM16.237 8a1.5 1.5 0 1 0 0-3 1.5 1.5 0 0 0 0 3z" fill="#FFF"/></svg>