<?xml version="1.0" encoding="UTF-8"?>
<svg width="52px" height="52px" viewBox="0 0 52 52" version="1.1" xmlns="http://www.w3.org/2000/svg" xmlns:xlink="http://www.w3.org/1999/xlink">
    <!-- Generator: Sketch 43.2 (39069) - http://www.bohemiancoding.com/sketch -->
    <title>icon-apple</title>
    <desc>Created with Sketch.</desc>
    <defs></defs>
    <g id="Page-1" stroke="none" stroke-width="1" fill="none" fill-rule="evenodd">
        <g id="1280" transform="translate(-1061.000000, -2140.000000)" fill="#B6BBBF">
            <g id="Group-15" transform="translate(50.000000, 1606.000000)">
                <g id="Group-5" transform="translate(619.000000, 110.000000)">
                    <g id="Group-17" transform="translate(242.000000, 416.000000)">
                        <g id="Group-20" transform="translate(150.000000, 8.000000)">
                            <path d="M31.6383379,13.1567246 C29.5570615,16.4276661 25.364368,16.3265461 25.364368,16.3265461 C25.364368,16.3265461 24.6638412,12.9686544 27.3307937,9.98432719 C29.9977462,7 33.2370503,7 33.2370503,7 C33.2370503,7 33.7196143,9.88578313 31.6383379,13.1567246 Z M36.6536259,16.3931473 C39.2510548,17.409105 40.8150367,19.6100825 40.8150367,19.6100825 C40.8150367,19.6100825 36.4776698,21.7168594 36.653627,26.9465546 C36.8295842,32.1762499 42,34.4048681 42,34.4048681 C42,34.4048681 40.0180765,38.6506702 38.0490749,41.1265569 C36.9790845,42.4719976 34.690843,44.3036196 33.0324929,44.3036196 C31.9571844,44.3036196 30.9503279,43.7073498 29.8125159,43.278511 C28.7978273,42.8960771 28.4935388,42.6422879 27.0545738,42.5687447 C25.8963457,42.5095496 24.301811,42.9614936 23.4445656,43.4080606 C22.5238938,43.8876685 20.6904871,44.7151261 18.8744148,44.0196458 C16.808646,43.2285422 14.9498213,41.0991195 13.4367744,38.5397661 C10.5935675,33.730417 10.0589439,29.7513723 10.0056191,27.3312643 C9.98618065,26.449064 9.9155969,23.4284957 11.8767496,20.2966249 C13.8379023,17.164754 16.6197413,16.3931473 16.6197413,16.3931473 C16.6197413,16.3931473 19.1984239,15.2936329 22.6000294,16.3931473 C24.5536104,17.024611 25.5511842,17.6634288 26.8219472,17.549599 C28.0927103,17.4357692 28.7139597,16.9119695 30.4671692,16.3931473 C32.1739815,15.8880553 34.8153802,15.6741362 36.6536259,16.3931473 Z" id="Apple-logo"></path>
                        </g>
                    </g>
                </g>
            </g>
        </g>
    </g>
</svg>