<?xml version="1.0" encoding="UTF-8"?>
<svg width="52px" height="52px" viewBox="0 0 52 52" version="1.1" xmlns="http://www.w3.org/2000/svg" xmlns:xlink="http://www.w3.org/1999/xlink">
    <!-- Generator: Sketch 43.2 (39069) - http://www.bohemiancoding.com/sketch -->
    <title>icon-android</title>
    <desc>Created with Sketch.</desc>
    <defs></defs>
    <g id="Page-1" stroke="none" stroke-width="1" fill="none" fill-rule="evenodd">
        <g id="1280" transform="translate(-819.000000, -2140.000000)" fill="#B6BBBF">
            <g id="Group-15" transform="translate(50.000000, 1606.000000)">
                <g id="Group-5" transform="translate(619.000000, 110.000000)">
                    <g id="Group-17" transform="translate(0.000000, 416.000000)">
                        <g id="Group" transform="translate(150.000000, 8.000000)">
                            <path d="M15.9016071,36.0005208 C15.9016071,36.9171397 16.6555366,37.6671007 17.5770059,37.6671007 L19.2524046,37.6671007 L19.2524046,43.5001302 C19.2524046,44.8833915 20.3749217,46 21.7655027,46 C23.1560836,46 24.2786008,44.8833915 24.2786008,43.5001302 L24.2786008,37.6671007 L27.6293982,37.6671007 L27.6293982,43.5001302 C27.6293982,44.8833915 28.7519154,46 30.1424963,46 C31.5330773,46 32.6555944,44.8833915 32.6555944,43.5001302 L32.6555944,37.6671007 L34.3309931,37.6671007 C35.2524624,37.6671007 36.0063919,36.9171397 36.0063919,36.0005208 L36.0063919,19.3347221 L15.9016071,19.3347221 L15.9016071,36.0005208 L15.9016071,36.0005208 Z M11.7131103,19.3347221 C10.3225294,19.3347221 9.20001221,20.4513307 9.20001221,21.8345919 L9.20001221,33.500651 C9.20001221,34.8839123 10.3225294,36.0005208 11.7131103,36.0005208 C13.1036912,36.0005208 14.2262084,34.8839123 14.2262084,33.500651 L14.2262084,21.8345919 C14.2262084,20.4513307 13.1036912,19.3347221 11.7131103,19.3347221 L11.7131103,19.3347221 Z M40.1948887,19.3347221 C38.8043078,19.3347221 37.6817906,20.4513307 37.6817906,21.8345919 L37.6817906,33.500651 C37.6817906,34.8839123 38.8043078,36.0005208 40.1948887,36.0005208 C41.5854696,36.0005208 42.7079868,34.8839123 42.7079868,33.500651 L42.7079868,21.8345919 C42.7079868,20.4513307 41.5854696,19.3347221 40.1948887,19.3347221 L40.1948887,19.3347221 Z M31.868157,9.60189573 L34.0545524,7.42700901 C34.3812551,7.10202594 34.3812551,6.57705328 34.0545524,6.2520702 C33.7278496,5.92708713 33.200099,5.92708713 32.8733962,6.2520702 L30.3938061,8.71027551 C29.0534871,8.05197646 27.5540053,7.66866309 25.9539995,7.66866309 C24.3456167,7.66866309 22.8377579,8.05197646 21.4890619,8.71860841 L19.0010948,6.24373731 C18.674392,5.91875423 18.1466414,5.91875423 17.8199387,6.24373731 C17.4932359,6.56872038 17.4932359,7.09369304 17.8199387,7.41867611 L20.014711,9.60189573 C17.5267439,11.4268007 15.9016071,14.3599813 15.9016071,17.6681423 L36.0063919,17.6681423 C36.0063919,14.3516484 34.3728781,11.4184678 31.868157,9.60189573 L31.868157,9.60189573 Z M30.1424963,14.3328993 C30.6051449,14.3328993 30.9801957,13.9598227 30.9801957,13.4996094 C30.9801957,13.0393961 30.6051449,12.6663195 30.1424963,12.6663195 C29.6798477,12.6663195 29.304797,13.0393961 29.304797,13.4996094 C29.304797,13.9598227 29.6798477,14.3328993 30.1424963,14.3328993 Z M21.7655027,14.3328993 C22.2281513,14.3328993 22.603202,13.9598227 22.603202,13.4996094 C22.603202,13.0393961 22.2281513,12.6663195 21.7655027,12.6663195 C21.3028541,12.6663195 20.9278033,13.0393961 20.9278033,13.4996094 C20.9278033,13.9598227 21.3028541,14.3328993 21.7655027,14.3328993 Z" id="Shape"></path>
                        </g>
                    </g>
                </g>
            </g>
        </g>
    </g>
</svg>