<svg width="20" height="20" viewBox="0 0 20 20" xmlns="http://www.w3.org/2000/svg"><title>icon_tw</title><path d="M16.641 4.208a5.144 5.144 0 0 1-1.694.69A2.59 2.59 0 0 0 13 4c-1.473 0-2.667 1.273-2.667 2.844a3 3 0 0 0 .07.648c-2.217-.118-4.183-1.25-5.498-2.971a2.97 2.97 0 0 0-.361 1.43c0 .986.47 1.857 1.186 2.367a2.532 2.532 0 0 1-1.208-.356v.036c0 1.378.92 2.528 2.14 2.789a2.52 2.52 0 0 1-1.205.049c.34 1.13 1.325 1.952 2.492 1.975A5.144 5.144 0 0 1 4 13.989a7.212 7.212 0 0 0 4.088 1.278c4.906 0 7.589-4.334 7.589-8.093 0-.123-.003-.246-.008-.368A5.635 5.635 0 0 0 17 5.334c-.484.23-1 .38-1.532.448.55-.352.974-.91 1.173-1.574z" fill="#FFF" fill-rule="evenodd"/></svg>