<?xml version="1.0" encoding="UTF-8"?>
<svg width="77px" height="29px" viewBox="0 0 77 29" version="1.1" xmlns="http://www.w3.org/2000/svg" xmlns:xlink="http://www.w3.org/1999/xlink">
    <!-- Generator: Sketch 43.2 (39069) - http://www.bohemiancoding.com/sketch -->
    <title>icon-command</title>
    <desc>Created with Sketch.</desc>
    <defs></defs>
    <g id="Page-1" stroke="none" stroke-width="1" fill="none" fill-rule="evenodd">
        <g id="1280" transform="translate(-773.000000, -2254.000000)">
            <g id="Group-4" transform="translate(120.000000, 2057.000000)">
                <g id="Group-3" transform="translate(120.000000, 182.000000)">
                    <g id="icon-command" transform="translate(533.000000, 15.000000)">
                        <path d="M0,4.00187852 C0,1.79170204 1.7900002,0 4.00453643,0 L72.9954636,0 C75.207108,0 77,1.79219474 77,4.00187852 L77,24.9981215 C77,27.208298 75.2099998,29 72.9954636,29 L4.00453643,29 C1.79289203,29 0,27.2078053 0,24.9981215 L0,4.00187852 Z" id="Combined-Shape" fill="#F1EAF2"></path>
                        <path d="M10.1577148,20.793457 L8.77392578,20.793457 L12.4301758,10.7578125 L13.8139648,10.7578125 L10.1577148,20.793457 Z M19.0825195,18.9208984 C19.2687184,18.9208984 19.4496248,18.8912763 19.6252441,18.8320312 C19.8008635,18.7727862 19.9563795,18.6902675 20.0917969,18.5844727 C20.2272142,18.4786779 20.3340654,18.3538419 20.4123535,18.2099609 C20.4906417,18.06608 20.5276693,17.9095061 20.5234375,17.7402344 L21.9580078,17.7402344 C21.9622396,18.0703142 21.8871264,18.3802883 21.732666,18.670166 C21.5782056,18.9600438 21.368735,19.2128895 21.104248,19.4287109 C20.839761,19.6445323 20.5340187,19.8159173 20.1870117,19.9428711 C19.8400048,20.0698249 19.4760761,20.1333008 19.0952148,20.1333008 C18.5662408,20.1333008 18.1028666,20.0423186 17.7050781,19.8603516 C17.3072897,19.6783845 16.975099,19.4297705 16.7084961,19.114502 C16.4418932,18.7992334 16.241944,18.4331889 16.1086426,18.0163574 C15.9753411,17.5995259 15.9086914,17.1562523 15.9086914,16.6865234 L15.9086914,16.4580078 C15.9086914,15.9882789 15.9753411,15.5439474 16.1086426,15.125 C16.241944,14.7060526 16.4418932,14.3400081 16.7084961,14.0268555 C16.975099,13.7137029 17.3072897,13.4650888 17.7050781,13.2810059 C18.1028666,13.0969229 18.564125,13.0048828 19.0888672,13.0048828 C19.5035828,13.0048828 19.8876122,13.0683587 20.2409668,13.1953125 C20.5943214,13.3222663 20.8990059,13.4999989 21.1550293,13.7285156 C21.4110527,13.9570324 21.609944,14.2299789 21.751709,14.5473633 C21.893474,14.8647477 21.9622396,15.2117494 21.9580078,15.5883789 L20.5234375,15.5883789 C20.5276693,15.4021801 20.4948734,15.2265633 20.4250488,15.0615234 C20.3552243,14.8964835 20.2547207,14.7526048 20.1235352,14.6298828 C19.9923496,14.5071608 19.8378915,14.4098311 19.6601562,14.3378906 C19.482421,14.2659502 19.2877615,14.2299805 19.0761719,14.2299805 C18.7587875,14.2299805 18.4943044,14.2945143 18.2827148,14.423584 C18.0711252,14.5526536 17.9018561,14.7219228 17.7749023,14.9313965 C17.6479486,15.1408702 17.5580244,15.3789049 17.505127,15.6455078 C17.4522296,15.9121107 17.4257812,16.1829413 17.4257812,16.4580078 L17.4257812,16.6865234 C17.4257812,16.9658217 17.4522296,17.2387682 17.505127,17.5053711 C17.5580244,17.771974 17.6479486,18.0100087 17.7749023,18.2194824 C17.9018561,18.4289561 18.0711252,18.5982253 18.2827148,18.7272949 C18.4943044,18.8563646 18.7609033,18.9208984 19.0825195,18.9208984 Z M23.6020508,16.5024414 C23.6020508,16.0073217 23.6750481,15.5460633 23.8210449,15.1186523 C23.9670417,14.6912414 24.1765123,14.3209651 24.4494629,14.0078125 C24.7224135,13.6946599 25.0556621,13.4492196 25.4492188,13.2714844 C25.8427754,13.0937491 26.2892228,13.0048828 26.7885742,13.0048828 C27.2921575,13.0048828 27.7417786,13.0937491 28.1374512,13.2714844 C28.5331237,13.4492196 28.8674303,13.6946599 29.1403809,14.0078125 C29.4133314,14.3209651 29.6217441,14.6912414 29.765625,15.1186523 C29.9095059,15.5460633 29.9814453,16.0073217 29.9814453,16.5024414 L29.9814453,16.6357422 C29.9814453,17.1350936 29.9095059,17.5984679 29.765625,18.0258789 C29.6217441,18.4532899 29.4133314,18.8225082 29.1403809,19.1335449 C28.8674303,19.4445816 28.5341817,19.688964 28.140625,19.8666992 C27.7470683,20.0444345 27.300621,20.1333008 26.8012695,20.1333008 C26.2976863,20.1333008 25.8480651,20.0444345 25.4523926,19.8666992 C25.05672,19.688964 24.7224135,19.4445816 24.4494629,19.1335449 C24.1765123,18.8225082 23.9670417,18.4532899 23.8210449,18.0258789 C23.6750481,17.5984679 23.6020508,17.1350936 23.6020508,16.6357422 L23.6020508,16.5024414 Z M25.1191406,16.6357422 C25.1191406,16.9488948 25.1519365,17.2429999 25.2175293,17.5180664 C25.2831221,17.7931329 25.3846836,18.0353993 25.5222168,18.244873 C25.65975,18.4543468 25.8343088,18.6193842 26.0458984,18.7399902 C26.257488,18.8605963 26.5092759,18.9208984 26.8012695,18.9208984 C27.0847996,18.9208984 27.3312978,18.8605963 27.5407715,18.7399902 C27.7502452,18.6193842 27.9237461,18.4543468 28.0612793,18.244873 C28.1988125,18.0353993 28.300374,17.7931329 28.3659668,17.5180664 C28.4315596,17.2429999 28.4643555,16.9488948 28.4643555,16.6357422 L28.4643555,16.5024414 C28.4643555,16.1977524 28.4315596,15.907879 28.3659668,15.6328125 C28.300374,15.357746 28.1988125,15.1165375 28.0612793,14.9091797 C27.9237461,14.7018219 27.7502452,14.5367845 27.5407715,14.4140625 C27.3312978,14.2913405 27.0805679,14.2299805 26.7885742,14.2299805 C26.5008124,14.2299805 26.2511404,14.2913405 26.0395508,14.4140625 C25.8279612,14.5367845 25.6544603,14.7018219 25.519043,14.9091797 C25.3836256,15.1165375 25.2831221,15.357746 25.2175293,15.6328125 C25.1519365,15.907879 25.1191406,16.1977524 25.1191406,16.5024414 L25.1191406,16.6357422 Z M32.5585938,13.1318359 L32.5966797,13.8554688 C32.732097,13.5888659 32.9140614,13.3804532 33.1425781,13.2302246 C33.3710949,13.079996 33.6461572,13.0048828 33.9677734,13.0048828 C34.2597671,13.0048828 34.5020335,13.0630691 34.6945801,13.1794434 C34.8871266,13.2958176 35.0320633,13.476724 35.1293945,13.722168 C35.2648119,13.5021148 35.4383127,13.327556 35.6499023,13.1984863 C35.8614919,13.0694167 36.1175115,13.0048828 36.4179688,13.0048828 C36.6422537,13.0048828 36.8485505,13.0419104 37.0368652,13.1159668 C37.22518,13.1900232 37.3859857,13.3074536 37.5192871,13.4682617 C37.6525886,13.6290698 37.7562659,13.8343086 37.8303223,14.0839844 C37.9043786,14.3336601 37.9414062,14.6341128 37.9414062,14.9853516 L37.9414062,20 L36.5322266,20 L36.5322266,14.9726562 C36.5322266,14.6975898 36.4740403,14.5082199 36.357666,14.404541 C36.2412917,14.3008621 36.0921233,14.2490234 35.9101562,14.2490234 C35.7366528,14.2490234 35.5991216,14.2902828 35.4975586,14.3728027 C35.3959956,14.4553227 35.3219403,14.5642897 35.2753906,14.699707 L35.2753906,20 L33.8979492,20 L33.8979492,14.9726562 C33.8979492,14.7060534 33.8439947,14.5187994 33.736084,14.4108887 C33.6281733,14.302978 33.4811207,14.2490234 33.2949219,14.2490234 C33.1171866,14.2490234 32.9775396,14.287109 32.8759766,14.3632812 C32.7744136,14.4394535 32.6961266,14.5431309 32.6411133,14.6743164 L32.6411133,20 L31.2319336,20 L31.2319336,13.1318359 L32.5585938,13.1318359 Z M40.3598633,13.1318359 L40.3979492,13.8554688 C40.5333666,13.5888659 40.7153309,13.3804532 40.9438477,13.2302246 C41.1723644,13.079996 41.4474268,13.0048828 41.769043,13.0048828 C42.0610366,13.0048828 42.3033031,13.0630691 42.4958496,13.1794434 C42.6883961,13.2958176 42.8333328,13.476724 42.9306641,13.722168 C43.0660814,13.5021148 43.2395823,13.327556 43.4511719,13.1984863 C43.6627615,13.0694167 43.918781,13.0048828 44.2192383,13.0048828 C44.4435233,13.0048828 44.64982,13.0419104 44.8381348,13.1159668 C45.0264495,13.1900232 45.1872552,13.3074536 45.3205566,13.4682617 C45.4538581,13.6290698 45.5575354,13.8343086 45.6315918,14.0839844 C45.7056482,14.3336601 45.7426758,14.6341128 45.7426758,14.9853516 L45.7426758,20 L44.3334961,20 L44.3334961,14.9726562 C44.3334961,14.6975898 44.2753098,14.5082199 44.1589355,14.404541 C44.0425613,14.3008621 43.8933928,14.2490234 43.7114258,14.2490234 C43.5379223,14.2490234 43.4003911,14.2902828 43.2988281,14.3728027 C43.1972651,14.4553227 43.1232099,14.5642897 43.0766602,14.699707 L43.0766602,20 L41.6992188,20 L41.6992188,14.9726562 C41.6992188,14.7060534 41.6452642,14.5187994 41.5373535,14.4108887 C41.4294428,14.302978 41.2823903,14.2490234 41.0961914,14.2490234 C40.9184561,14.2490234 40.7788091,14.287109 40.6772461,14.3632812 C40.5756831,14.4394535 40.4973961,14.5431309 40.4423828,14.6743164 L40.4423828,20 L39.0332031,20 L39.0332031,13.1318359 L40.3598633,13.1318359 Z M51.6650391,20 C51.6227211,19.9153642 51.5878094,19.8159185 51.5603027,19.7016602 C51.5327961,19.5874018 51.5084636,19.4646816 51.4873047,19.3334961 C51.3815099,19.4435227 51.2619636,19.5461421 51.1286621,19.6413574 C50.9953607,19.7365727 50.8472502,19.8201494 50.6843262,19.8920898 C50.5214022,19.9640303 50.3457854,20.0211586 50.1574707,20.0634766 C49.969156,20.1057945 49.7670909,20.1269531 49.5512695,20.1269531 C49.1873354,20.1269531 48.8583185,20.0751145 48.564209,19.9714355 C48.2700994,19.8677566 48.0183116,19.7238779 47.8088379,19.5397949 C47.5993642,19.355712 47.4375006,19.1388359 47.3232422,18.8891602 C47.2089838,18.6394844 47.1518555,18.3686538 47.1518555,18.0766602 C47.1518555,17.3403283 47.4258599,16.7775085 47.973877,16.3881836 C48.521894,15.9988587 49.3079376,15.8041992 50.3320312,15.8041992 L51.4428711,15.8041992 L51.4428711,15.3535156 C51.4428711,14.9895815 51.320151,14.700766 51.074707,14.4870605 C50.8292631,14.2733551 50.4822614,14.1665039 50.0336914,14.1665039 C49.8305654,14.1665039 49.6528328,14.1908363 49.5004883,14.239502 C49.3481438,14.2881676 49.2211919,14.3548173 49.1196289,14.4394531 C49.0180659,14.524089 48.9418948,14.6235346 48.8911133,14.737793 C48.8403318,14.8520514 48.8149414,14.9747715 48.8149414,15.105957 L47.2978516,15.105957 C47.2978516,14.8393541 47.3602696,14.5801608 47.4851074,14.3283691 C47.6099453,14.0765775 47.7929675,13.8522959 48.0341797,13.6555176 C48.2753918,13.4587393 48.5705549,13.3011074 48.9196777,13.1826172 C49.2688006,13.064127 49.667641,13.0048828 50.1162109,13.0048828 C50.522463,13.0048828 50.8990868,13.0546056 51.2460938,13.1540527 C51.5931007,13.2534998 51.8935534,13.4016103 52.1474609,13.5983887 C52.4013685,13.795167 52.6002597,14.0406073 52.7441406,14.3347168 C52.8880216,14.6288263 52.9599609,14.9726543 52.9599609,15.3662109 L52.9599609,18.4257812 C52.9599609,18.7262385 52.9821775,19.0002429 53.0266113,19.2478027 C53.0710451,19.4953626 53.135579,19.7101228 53.2202148,19.8920898 L53.2202148,20 L51.6650391,20 Z M49.8369141,18.9018555 C50.0315765,18.9018555 50.2145988,18.877523 50.3859863,18.8288574 C50.5573739,18.7801918 50.711832,18.7167159 50.8493652,18.6384277 C50.9868985,18.5601396 51.1053869,18.4702154 51.204834,18.3686523 C51.3042811,18.2670893 51.383626,18.163412 51.4428711,18.0576172 L51.4428711,16.769043 L50.4780273,16.769043 C49.8601857,16.769043 49.404217,16.8684886 49.1101074,17.0673828 C48.8159979,17.266277 48.6689453,17.5498028 48.6689453,17.9179688 C48.6689453,18.0576179 48.6922198,18.1877435 48.7387695,18.3083496 C48.7853192,18.4289557 48.8562007,18.532633 48.951416,18.6193848 C49.0466313,18.7061365 49.1672356,18.7749021 49.3132324,18.8256836 C49.4592292,18.8764651 49.633788,18.9018555 49.8369141,18.9018555 Z M56.4575195,13.1318359 L56.5527344,14.0839844 C56.8024101,13.7412092 57.1039208,13.4756683 57.4572754,13.2873535 C57.81063,13.0990388 58.2031228,13.0048828 58.6347656,13.0048828 C58.9860044,13.0048828 59.3065578,13.0556636 59.5964355,13.1572266 C59.8863133,13.2587896 60.1359853,13.4174794 60.345459,13.6333008 C60.5549327,13.8491222 60.7178542,14.1284163 60.8342285,14.4711914 C60.9506028,14.8139666 61.0087891,15.2265601 61.0087891,15.7089844 L61.0087891,20 L59.4916992,20 L59.4916992,15.734375 C59.4916992,15.4508449 59.4589033,15.2138681 59.3933105,15.0234375 C59.3277178,14.8330069 59.2346197,14.6806646 59.1140137,14.5664062 C58.9934076,14.4521479 58.846355,14.3706871 58.6728516,14.3220215 C58.4993481,14.2733559 58.3025727,14.2490234 58.0825195,14.2490234 C57.748208,14.2490234 57.4572766,14.3230787 57.2097168,14.4711914 C56.962157,14.6193041 56.7622078,14.8203112 56.6098633,15.0742188 L56.6098633,20 L55.0864258,20 L55.0864258,13.1318359 L56.4575195,13.1318359 Z M62.6845703,16.5151367 C62.6845703,15.9946263 62.7480462,15.5185568 62.875,15.0869141 C63.0019538,14.6552713 63.1839181,14.284995 63.4208984,13.9760742 C63.6578788,13.6671534 63.9445784,13.4280607 64.2810059,13.2587891 C64.6174333,13.0895174 64.9951151,13.0048828 65.4140625,13.0048828 C65.790692,13.0048828 66.1228827,13.0694167 66.4106445,13.1984863 C66.6984064,13.327556 66.9501942,13.5126941 67.1660156,13.7539062 L67.1660156,10.25 L68.6894531,10.25 L68.6894531,20 L67.3120117,20 L67.2358398,19.3017578 C67.0200185,19.5683607 66.7608251,19.7725416 66.458252,19.9143066 C66.1556788,20.0560717 65.8033874,20.1269531 65.4013672,20.1269531 C64.9866516,20.1269531 64.6121436,20.0391448 64.277832,19.8635254 C63.9435205,19.687906 63.6589367,19.4456396 63.4240723,19.1367188 C63.1892078,18.8277979 63.0072435,18.4606955 62.8781738,18.0354004 C62.7491042,17.6101053 62.6845703,17.147789 62.6845703,16.6484375 L62.6845703,16.5151367 Z M64.2016602,16.6484375 C64.2016602,16.9573583 64.2312823,17.2472317 64.2905273,17.5180664 C64.3497724,17.7889011 64.4439284,18.0258779 64.572998,18.2290039 C64.7020677,18.4321299 64.8671051,18.5918777 65.0681152,18.708252 C65.2691254,18.8246262 65.5092759,18.8828125 65.7885742,18.8828125 C66.1355812,18.8828125 66.419107,18.8076993 66.6391602,18.6574707 C66.8592133,18.5072421 67.0348301,18.3051771 67.1660156,18.0512695 L67.1660156,15.0678711 C67.0348301,14.8181954 66.8581554,14.6193041 66.6359863,14.4711914 C66.4138172,14.3230787 66.1355811,14.2490234 65.8012695,14.2490234 C65.5177395,14.2490234 65.275473,14.3082676 65.0744629,14.4267578 C64.8734528,14.545248 64.7084154,14.7081695 64.5793457,14.9155273 C64.450276,15.1228852 64.3550622,15.3640937 64.2937012,15.6391602 C64.2323402,15.9142266 64.2016602,16.2062159 64.2016602,16.5151367 L64.2016602,16.6484375 Z" id="/command" fill="#BE9EC4"></path>
                    </g>
                </g>
            </g>
        </g>
    </g>
</svg>