<?xml version="1.0" encoding="UTF-8"?>
<svg width="56px" height="56px" viewBox="0 0 56 56" version="1.1" xmlns="http://www.w3.org/2000/svg" xmlns:xlink="http://www.w3.org/1999/xlink">
    <!-- Generator: Sketch 43.2 (39069) - http://www.bohemiancoding.com/sketch -->
    <title>Combined Shape</title>
    <desc>Created with Sketch.</desc>
    <defs>
        <linearGradient x1="50%" y1="0%" x2="50%" y2="100%" id="linearGradient-1">
            <stop stop-color="#2991C7" offset="0%"></stop>
            <stop stop-color="#2BABEE" offset="100%"></stop>
        </linearGradient>
        <linearGradient x1="39.7315843%" y1="11.566805%" x2="81.2520218%" y2="113.755%" id="linearGradient-2">
            <stop stop-color="#18C7FF" offset="0%"></stop>
            <stop stop-color="#0330C0" offset="100%"></stop>
        </linearGradient>
    </defs>
    <g id="Page-1" stroke="none" stroke-width="1" fill="none" fill-rule="evenodd">
        <g id="1280" transform="translate(-100.000000, -90.000000)" fill="#FFFFFF">
            <g id="Group-19" transform="translate(50.000000, 40.000000)">
                <g id="Group-11" transform="translate(50.000000, 50.000000)">
                    <g id="blue-rectangle">
                        <path d="M19.0399996,0 C19.0399996,0 40.2266652,9.84970067e-09 36.9599986,0 C43.1666667,9.84970067e-09 45.1453323,2.61469305e-09 47.9453323,0.933333333 C51.211999,2.1 53.9,4.78333333 55.0666667,8.05 C56,10.85 56,12.8333333 56,19.0399996 L56,36.9599986 C56,43.1666667 56,45.15 55.0666667,47.95 C53.9,51.2493332 51.2493332,53.9 47.95,55.0666667 C45.15,56 43.1666667,56 36.9599986,56 L19.0399996,56 C12.8333333,56 10.85,56 8.05,55.0666667 C4.75066681,53.9 2.10216471,51.2493332 0.933333333,47.95 C2.78131632e-08,45.15 3.46636829e-08,43.1666667 0,36.9599986 C3.46636829e-08,36.9599986 0,19.0399996 0,19.0399996 C0,12.8333333 0,10.85 0.933333333,8.05 C2.1,4.75066681 4.75066681,2.1 8.05,0.933333333 C10.85,-4.35706132e-09 12.8333333,0 19.0399996,0 Z M23.1527854,26.4198566 C27.0723177,26.4198566 28.9276823,27.1655819 32.8472146,27.1655819 C38.1567788,27.1655819 41.7959184,25.0283331 41.7959184,20.6031991 C41.7959184,16.1780651 38.7637992,14.0408163 34.3386652,14.0408163 C27.110578,14.040399 21.0408865,19.4808838 20.2534054,26.6659459 C21.2104892,26.4968214 22.1808887,26.4144572 23.1527854,26.4198566 Z M23.1527854,28.9976834 C17.8432212,28.9976834 14.2040816,31.1349322 14.2040816,35.5600662 C14.2040816,39.9852002 17.2362008,42.122449 21.6613348,42.122449 C28.889422,42.1228664 34.9591135,36.6823815 35.7465946,29.4973194 C34.7895108,29.6664439 33.8191113,29.7488081 32.8472146,29.7434087 C28.9276823,29.7434087 27.0723177,28.9976834 23.1527854,28.9976834 Z" id="Combined-Shape"></path>
                    </g>
                </g>
            </g>
        </g>
    </g>
</svg>